<svg id="圖層_1" data-name="圖層 1" xmlns="http://www.w3.org/2000/svg" viewBox="0 0 1046 1024"><path d="M419.39,32.78c-46.3,2.58-97.18,15-140.06,34A408.47,408.47,0,0,0,120.21,193.62C33.12,309.39,14.83,464.7,72.76,598A406.83,406.83,0,0,0,210.53,767.12a412.9,412.9,0,0,0,104,53,400.45,400.45,0,0,0,138.64,20.68c24.58-.77,34-1.62,57.17-5.44a403.32,403.32,0,0,0,145.21-54.4l9.14-5.62L781,891.56,897.23,1007.8l7.38,6.09c16.5,2.47,25.22-4.06,30.94-7,8.48-4.29,15-11.27,25.05-20.23,13.91-12.48,47.64-48.12,52.69-55.64,8-12.1,13-25.35,13-34.21,0-9.91,7.15-2.19-120.15-129.58-64.89-65-118.05-118.44-118.05-118.82a106.79,106.79,0,0,1,5.33-9.43c21.53-36.3,39.16-84.52,47.45-129.49,5-27,5.81-38,5.81-73.84-.09-35.54-.66-42.79-5.81-71.94-18.58-105.38-81.85-201.9-172.36-262.89C595.47,51.55,508.48,27.83,419.39,32.78Zm63.27,136.54c38.69,5.81,77.75,20.77,109.19,41.74,17.92,12,26.87,19.34,42.88,35.44a264,264,0,0,1,59.74,91,268.93,268.93,0,0,1,17.06,68.6c1.9,16.58,1.33,54.79-1,69.55-5.05,31.45-13.63,57.84-27.54,84.9A270,270,0,0,1,508.29,698.71c-24,5.91-36.68,7.34-63.65,7.43-25.25,0-34.58-.76-54.59-4.76C301,683.46,226,620.77,192.34,536.16A267.86,267.86,0,0,1,175,466.6c-2-17.24-1.52-54,1-69.55A271.31,271.31,0,0,1,369.18,176.94c17.82-5.14,31.54-7.52,55.45-9.9C434.73,166,470,167.42,482.66,169.32Z"/></svg>